<svg xmlns="http://www.w3.org/2000/svg" viewBox="0 0 256 256"><defs><radialGradient id="sunGrad" cx="50%" cy="45%" r="65%"><stop offset="0%" stop-color="#E8ECEF"/><stop offset="100%" stop-color="#F2994A"/></radialGradient></defs><circle cx="128" cy="128" r="104" fill="url(#sunGrad)"/><circle cx="128" cy="128" r="104" fill="none" stroke="#1F4E79" stroke-width="2"/><g stroke="#1F4E79" stroke-width="2" stroke-linecap="round" fill="none"><path d="M128 178 C128 128 150 108 150 60 C150 108 128 128 128 178 Z"/><path d="M128 178 C128 128 150 108 150 60 C150 108 128 128 128 178 Z"/><path d="M128 178 C128 128 150 108 150 60 C150 108 128 128 128 178 Z"/><path d="M128 178 C128 128 150 108 150 60 C150 108 128 128 128 178 Z"/><path d="M128 178 C128 128 150 108 150 60 C150 108 128 128 128 178 Z"/><path d="M128 178 C128 128 150 108 150 60 C150 108 128 128 128 178 Z"/><path d="M128 178 C128 128 150 108 150 60 C150 108 128 128 128 178 Z"/></g><g stroke="#1F4E79" stroke-width="1.5" fill="none" stroke-linecap="round"><path d="M128 178 C128 128 150 108 150 60 C150 108 128 128 128 178 Z"/><path d="M128 178 C128 128 150 108 150 60 C150 108 128 128 128 178 Z"/></g></svg>